<svg width="136" height="137" viewBox="0 0 136 137" fill="none" xmlns="http://www.w3.org/2000/svg">
<rect width="135" height="137" rx="15" fill="transparent"/>
<ellipse cx="68" cy="68.5" rx="52" ry="40.5" fill="white"/>
<path d="M44.9309 47.603C48.6712 45.8974 51.5808 42.7758 53.0196 38.925C54.4584 35.0742 54.3085 30.8095 52.603 27.0691C50.8974 23.3288 47.7759 20.4192 43.925 18.9804C40.0742 17.5416 35.8095 17.6914 32.0691 19.397L38.5 33.5L44.9309 47.603Z" fill="white"/>
<path d="M40.1489 37.0987C42.5621 35.9983 44.4392 33.9844 45.3675 31.5C46.2958 29.0156 46.1991 26.2642 45.0987 23.8511C43.9983 21.4379 41.9844 19.5608 39.5 18.6325C37.0156 17.7042 34.2642 17.8009 31.8511 18.9013L36 28L40.1489 37.0987Z" fill="#FF9F12"/>
<path d="M30.9309 54.603C34.6712 52.8974 37.5808 49.7758 39.0196 45.925C40.4584 42.0742 40.3085 37.8095 38.603 34.0691C36.8974 30.3288 33.7759 27.4192 29.925 25.9804C26.0742 24.5416 21.8095 24.6914 18.0691 26.397L24.5 40.5L30.9309 54.603Z" fill="white"/>
<path d="M26.1489 44.0987C28.5621 42.9983 30.4392 40.9844 31.3675 38.5C32.2958 36.0156 32.1991 33.2642 31.0987 30.8511C29.9983 28.4379 27.9844 26.5608 25.5 25.6325C23.0156 24.7042 20.2642 24.8009 17.8511 25.9013L22 35L26.1489 44.0987Z" fill="#FF9F12"/>
<rect x="9" y="59" width="16" height="21" fill="white"/>
<rect x="9" y="59" width="5" height="21" fill="#FF9F12"/>
<rect x="12" y="63" width="1" height="9" fill="white"/>
<rect x="12" y="63" width="1" height="9" fill="white"/>
<rect x="12" y="63" width="1" height="9" fill="white"/>
<rect x="10" y="63" width="1" height="9" fill="white"/>
<rect x="10" y="63" width="1" height="9" fill="white"/>
<rect x="10" y="63" width="1" height="9" fill="white"/>
<mask id="path-11-inside-1_201_2" fill="white">
<path d="M37.0737 96.897L52.1088 102.369L44.9263 122.103L29.8912 116.631L37.0737 96.897Z"/>
</mask>
<path d="M37.0737 96.897L52.1088 102.369L44.9263 122.103L29.8912 116.631L37.0737 96.897Z" fill="white"/>
<path d="M45.6104 120.223L30.5753 114.751L29.2072 118.51L44.2423 123.982L45.6104 120.223Z" fill="#FF9F12" mask="url(#path-11-inside-1_201_2)"/>
<mask id="path-13-inside-2_201_2" fill="white">
<path d="M83.8913 102.369L98.9263 96.8971L106.109 116.631L91.0737 122.103L83.8913 102.369Z"/>
</mask>
<path d="M83.8913 102.369L98.9263 96.8971L106.109 116.631L91.0737 122.103L83.8913 102.369Z" fill="white"/>
<path d="M105.425 114.751L90.3896 120.224L91.7577 123.982L106.793 118.51L105.425 114.751Z" fill="#FF9F12" mask="url(#path-13-inside-2_201_2)"/>
<path d="M116.914 65.9219C114.64 64.6521 112.819 62.7034 111.706 60.3481C110.593 57.9928 110.243 55.3486 110.707 52.7851C111.17 50.2216 112.422 47.8668 114.289 46.0499C116.156 44.2329 118.544 43.0446 121.119 42.651C123.694 42.2574 126.328 42.6782 128.652 43.8545C130.976 45.0309 132.875 46.904 134.083 49.2121C135.291 51.5202 135.747 54.148 135.388 56.7283C135.03 59.3085 133.874 61.7122 132.083 63.6035L128.958 60.6435C130.132 59.4035 130.89 57.8275 131.125 56.1357C131.36 54.444 131.061 52.7211 130.269 51.2078C129.477 49.6944 128.232 48.4663 126.708 47.6951C125.184 46.9238 123.458 46.6479 121.769 46.906C120.081 47.1641 118.515 47.9432 117.291 49.1344C116.067 50.3257 115.246 51.8696 114.942 53.5504C114.639 55.2312 114.868 56.9648 115.598 58.5091C116.327 60.0533 117.521 61.331 119.013 62.1636L116.914 65.9219Z" fill="white"/>
<path d="M134.181 60.9664C133.645 62.1962 132.865 63.2719 131.903 64.1116C130.941 64.9512 129.821 65.5327 128.629 65.8116C127.436 66.0904 126.203 66.0594 125.023 65.7209C123.843 65.3823 122.747 64.7451 121.819 63.8579C120.891 62.9707 120.156 61.8569 119.668 60.6013C119.181 59.3457 118.955 57.9816 119.007 56.6128C119.06 55.2441 119.389 53.9068 119.971 52.703C120.552 51.4993 121.37 50.4607 122.362 49.6665L124.851 53.6013C124.391 53.9693 124.012 54.4507 123.742 55.0086C123.473 55.5665 123.32 56.1862 123.296 56.8206C123.272 57.4549 123.376 58.0871 123.602 58.669C123.828 59.2509 124.169 59.7671 124.599 60.1783C125.029 60.5895 125.537 60.8848 126.084 61.0417C126.631 61.1986 127.202 61.213 127.755 61.0837C128.307 60.9545 128.826 60.685 129.272 60.2959C129.718 59.9067 130.079 59.4082 130.328 58.8382L134.181 60.9664Z" fill="#FF9F12"/>
<circle cx="38.5" cy="56.5" r="7.5" fill="#FF9F12"/>
</svg>
